<?xml version="1.0" encoding="UTF-8"?>
<!DOCTYPE svg PUBLIC "-//W3C//DTD SVG 1.1//EN" "http://www.w3.org/Graphics/SVG/1.1/DTD/svg11.dtd">
<!-- Creator: CorelDRAW -->
<svg xmlns="http://www.w3.org/2000/svg" xml:space="preserve" width="150px" height="50px" style="shape-rendering:geometricPrecision; text-rendering:geometricPrecision; image-rendering:optimizeQuality; fill-rule:evenodd; clip-rule:evenodd"
viewBox="0 0 150 49.9984"
 xmlns:xlink="http://www.w3.org/1999/xlink">
 <defs>
  <style type="text/css">
   <![CDATA[
    .fil0 {fill:none}
    .fil1 {fill:#1667D3}
    .fil2 {fill:#1667D3;fill-rule:nonzero}
   ]]>
  </style>
 </defs>
 <g id="Layer_x0020_1">
  <metadata id="CorelCorpID_0Corel-Layer"/>
  <rect class="fil0" y="-0.00127584" width="150" height="49.9996"/>
  <g id="_254298408">
   <path id="_254286960" class="fil1" d="M126.366 22.4717c-0.650787,-1.15394 -1.21181,-2.16732 -1.68543,-3.04016 -0.473622,-0.872835 -0.902362,-1.65709 -1.2874,-2.35157 -0.385039,-0.695669 -0.716929,-1.32402 -0.998031,-1.88622 -0.281102,-0.562205 -0.555118,-1.11024 -0.822047,-1.64291 -0.23622,0.532677 -0.494882,1.08071 -0.775984,1.64291 -0.281102,0.562205 -0.607087,1.19055 -0.976772,1.88622 -0.369685,0.694488 -0.791339,1.47165 -1.26496,2.32913 -0.472441,0.858661 -1.03465,1.86378 -1.68543,3.01772l-4.74921 8.43189c-0.532677,0.947244 -1.20591,1.70906 -2.01969,2.28543 -0.812598,0.577559 -1.82598,0.865748 -3.03898,0.865748 -1.15394,0 -2.19685,-0.333071 -3.12874,-0.998031 -0.93189,-0.666142 -1.60512,-1.69488 -2.01969,-3.08504l-7.54488 -26.0941 9.18661 0 2.79685 10.3394c0.472441,1.68661 0.864567,3.16654 1.1752,4.43858 0.31063,1.27205 0.584646,2.51457 0.820866,3.72756 0.473622,-1.03583 1.02874,-2.1815 1.66417,-3.43937 0.636614,-1.25787 1.47283,-2.84764 2.50748,-4.77047l3.99449 -7.45512c0.385039,-0.740551 0.768898,-1.32402 1.15394,-1.75394 0.385039,-0.42874 0.791339,-0.761811 1.22008,-0.998031 0.42874,-0.237402 0.879921,-0.392126 1.35354,-0.466535 0.473622,-0.0732283 0.976772,-0.111024 1.50945,-0.111024 0.562205,0 1.07953,0.0377953 1.55315,0.111024 0.473622,0.0744094 0.924803,0.229134 1.35354,0.466535 0.42874,0.23622 0.843307,0.569291 1.24252,0.998031 0.399213,0.429921 0.791339,1.01339 1.17638,1.75394l3.94961 7.49882c0.562205,1.03583 1.05,1.94528 1.46457,2.72953 0.414567,0.784252 0.784252,1.49409 1.10906,2.13071 0.325984,0.635433 0.614173,1.22008 0.865748,1.75276 0.251575,0.532677 0.494882,1.05 0.732283,1.55315 0.23622,-1.18346 0.524409,-2.42598 0.865748,-3.72756 0.340157,-1.30157 0.731102,-2.7815 1.1752,-4.43858l2.79567 -10.3394 8.96575 0 -7.67835 26.0941c-0.414567,1.39016 -1.0878,2.4189 -2.01969,3.08504 -0.93189,0.664961 -1.9748,0.998031 -3.12874,0.998031 -1.18346,0 -2.1815,-0.281102 -2.99528,-0.843307 -0.81378,-0.562205 -1.50118,-1.3311 -2.06339,-2.30787l-4.74921 -8.38701zm-59.4213 -7.58858c0.650787,1.15394 1.22126,2.16614 1.70906,3.03898 0.487795,0.872835 0.917717,1.65 1.2874,2.33031 0.369685,0.680315 0.694488,1.30157 0.975591,1.86378 0.281102,0.562205 0.555118,1.11024 0.820866,1.64173 0.237402,-0.531496 0.496063,-1.07244 0.777165,-1.61929 0.281102,-0.54685 0.605906,-1.16811 0.976772,-1.86378 0.369685,-0.695669 0.798425,-1.47165 1.28622,-2.33031 0.488976,-0.85748 1.05827,-1.86378 1.70906,-3.01772l4.74803 -8.43189c0.532677,-0.946063 1.20591,-1.70787 2.01969,-2.28543 0.81378,-0.576378 1.82717,-0.865748 3.04016,-0.865748 1.15394,0 2.19685,0.333071 3.12874,0.999213 0.93189,0.664961 1.60512,1.6937 2.0185,3.08386l7.5 26.0953 -9.14173 0 -2.79567 -10.3406c-0.473622,-1.68661 -0.872835,-3.16535 -1.19882,-4.4374 -0.324803,-1.27323 -0.605906,-2.51575 -0.842126,-3.72874 -0.50315,1.03583 -1.06535,2.18268 -1.68661,3.43937 -0.62126,1.25787 -1.43504,2.84764 -2.44134,4.77165l-3.99449 7.45512c-0.383858,0.73937 -0.775984,1.32402 -1.1752,1.75276 -0.399213,0.42874 -0.806693,0.761811 -1.22126,0.999213 -0.413386,0.23622 -0.85748,0.390945 -1.3311,0.465354 -0.473622,0.0744094 -0.990945,0.111024 -1.55315,0.111024 -0.562205,0 -1.07953,-0.0366142 -1.55315,-0.111024 -0.473622,-0.0744094 -0.917717,-0.229134 -1.3311,-0.465354 -0.414567,-0.237402 -0.820866,-0.570472 -1.22126,-0.999213 -0.399213,-0.42874 -0.791339,-1.01339 -1.1752,-1.75276l-3.99449 -7.5c-0.532677,-1.0063 -1.0063,-1.90866 -1.41969,-2.70709 -0.414567,-0.798425 -0.791339,-1.51654 -1.13268,-2.15197 -0.340157,-0.636614 -0.635433,-1.22126 -0.887008,-1.75394 -0.251575,-0.531496 -0.496063,-1.05 -0.732283,-1.55315 -0.23622,1.18346 -0.517323,2.4189 -0.843307,3.7063 -0.324803,1.28622 -0.709843,2.77323 -1.15394,4.45984l-2.79567 10.3406 -9.00945 0 7.67835 -26.0953c0.414567,-1.39016 1.09488,-2.4189 2.04094,-3.08386 0.947244,-0.666142 1.99724,-0.999213 3.15118,-0.999213 1.18346,0 2.1815,0.281102 2.99528,0.843307 0.81378,0.562205 1.48701,1.33228 2.01969,2.30787l4.74803 8.38819z"/>
   <path id="_254298624" class="fil2" d="M12.352 43.2224c0,0.49252 -0.080315,0.947244 -0.242126,1.36654 -0.162992,0.420472 -0.393307,0.784252 -0.690945,1.09016 -0.297638,0.307087 -0.654331,0.545669 -1.07244,0.716929 -0.41811,0.172441 -0.882283,0.258661 -1.3937,0.258661 -0.507874,0 -0.970866,-0.0862205 -1.38898,-0.258661 -0.416929,-0.17126 -0.774803,-0.409843 -1.07362,-0.716929 -0.298819,-0.305906 -0.531496,-0.669685 -0.695669,-1.09016 -0.164173,-0.419291 -0.245669,-0.874016 -0.245669,-1.36654 0,-0.49252 0.0814961,-0.948425 0.245669,-1.36772 0.164173,-0.420472 0.39685,-0.78189 0.695669,-1.08898 0.298819,-0.305906 0.656693,-0.54685 1.07362,-0.71811 0.41811,-0.17126 0.881102,-0.25748 1.38898,-0.25748 0.340157,0 0.661417,0.0389764 0.961417,0.11811 0.3,0.0791339 0.576378,0.190157 0.826772,0.334252 0.250394,0.144094 0.477165,0.318898 0.676772,0.524409 0.199606,0.206693 0.368504,0.437008 0.507874,0.690945 0.138189,0.253937 0.245669,0.529134 0.318898,0.826772 0.0720472,0.297638 0.10748,0.609449 0.10748,0.937795zm-1.27677 0c0,-0.368504 -0.0496063,-0.699213 -0.148819,-0.992126 -0.0992126,-0.292913 -0.239764,-0.539764 -0.422835,-0.744094 -0.18189,-0.204331 -0.403937,-0.361417 -0.664961,-0.470079 -0.262205,-0.10748 -0.55748,-0.161811 -0.885827,-0.161811 -0.328346,0 -0.622441,0.0543307 -0.883465,0.161811 -0.262205,0.108661 -0.485433,0.265748 -0.669685,0.470079 -0.184252,0.204331 -0.325984,0.451181 -0.425197,0.744094 -0.0992126,0.292913 -0.148819,0.623622 -0.148819,0.992126 0,0.368504 0.0496063,0.698031 0.148819,0.990945 0.0992126,0.292913 0.240945,0.539764 0.425197,0.742913 0.184252,0.20315 0.40748,0.359055 0.669685,0.467717 0.261024,0.108661 0.555118,0.162992 0.883465,0.162992 0.328346,0 0.623622,-0.0543307 0.885827,-0.162992 0.261024,-0.108661 0.483071,-0.264567 0.664961,-0.467717 0.183071,-0.20315 0.323622,-0.45 0.422835,-0.742913 0.0992126,-0.292913 0.148819,-0.622441 0.148819,-0.990945z"/>
   <path id="_2542986241" class="fil2" d="M23.152 39.8646l0 6.71575 -0.640157 0c-0.0992126,0 -0.18189,-0.0165354 -0.248031,-0.0496063 -0.0673228,-0.0318898 -0.132283,-0.0862205 -0.193701,-0.164173l-3.50669 -4.47638c0.0188976,0.204331 0.0283465,0.393307 0.0283465,0.565748l0 4.12441 -1.10079 0 0 -6.71575 0.654331 0c0.0531496,0 0.0992126,0.0023622 0.138189,0.00708661 0.0389764,0.00472441 0.0732283,0.0129921 0.102756,0.0271654 0.0295276,0.0141732 0.0566929,0.034252 0.0850394,0.0602362 0.0271654,0.0271654 0.0590551,0.0625984 0.092126,0.105118l3.52087 4.49646c-0.00944882,-0.108661 -0.0177165,-0.216142 -0.023622,-0.32126 -0.00590551,-0.105118 -0.00944882,-0.201969 -0.00944882,-0.291732l0 -4.08307 1.10079 0z"/>
   <polygon id="_25429862412" class="fil2" points="29.9398,40.8591 29.9398,42.7217 32.289,42.7217 32.289,43.6819 29.9398,43.6819 29.9398,45.5823 32.9209,45.5823 32.9209,46.5803 28.6854,46.5803 28.6854,39.8646 32.9209,39.8646 32.9209,40.8591 "/>
   <path id="_254298624123" class="fil2" d="M51.8126 39.8646l0 6.71575 -1.09961 0 0 -4.33701c0,-0.173622 0.00826772,-0.361417 0.0271654,-0.562205l-2.02913 3.8126c-0.0956693,0.183071 -0.243307,0.274016 -0.441732,0.274016l-0.175984 0c-0.198425,0 -0.344882,-0.0909449 -0.441732,-0.274016l-2.05276 -3.82677c0.00944882,0.101575 0.0177165,0.20315 0.023622,0.302362 0.00590551,0.0980315 0.00944882,0.190157 0.00944882,0.274016l0 4.33701 -1.10079 0 0 -6.71575 0.94252 0c0.0555118,0 0.103937,0.0023622 0.144094,0.00472441 0.0401575,0.00354331 0.0779528,0.0106299 0.109843,0.023622 0.0330709,0.011811 0.0625984,0.0318898 0.0885827,0.0602362 0.0259843,0.0283465 0.0507874,0.0649606 0.0755906,0.111024l2.01142 3.72992c0.0519685,0.0992126 0.101575,0.200787 0.146457,0.305906 0.0448819,0.105118 0.0885827,0.21378 0.132283,0.325984 0.0425197,-0.114567 0.0874016,-0.226772 0.134646,-0.333071 0.046063,-0.10748 0.0956693,-0.209055 0.147638,-0.308268l1.98307 -3.72047c0.0248031,-0.046063 0.0519685,-0.0826772 0.0791339,-0.111024 0.0283465,-0.0283465 0.0590551,-0.0484252 0.092126,-0.0602362 0.0318898,-0.0129921 0.0673228,-0.0200787 0.10748,-0.023622 0.0401575,-0.0023622 0.0885827,-0.00472441 0.144094,-0.00472441l0.94252 0z"/>
   <polygon id="_2542986241234" class="fil2" points="58.6004,40.8591 58.6004,42.7217 60.9496,42.7217 60.9496,43.6819 58.6004,43.6819 58.6004,45.5823 61.5815,45.5823 61.5815,46.5803 57.3461,46.5803 57.3461,39.8646 61.5815,39.8646 61.5815,40.8591 "/>
   <path id="_25429862412345" class="fil2" d="M72.6886 43.2224c0,0.49252 -0.0826772,0.944882 -0.24685,1.35591 -0.164173,0.412205 -0.394488,0.766535 -0.692126,1.06417 -0.296457,0.296457 -0.654331,0.527953 -1.07244,0.692126 -0.41811,0.164173 -0.882283,0.245669 -1.39252,0.245669l-2.55945 0 0 -6.71575 2.55945 0c0.510236,0 0.974409,0.0826772 1.39252,0.248031 0.41811,0.165354 0.775984,0.39685 1.07244,0.692126 0.297638,0.295276 0.527953,0.649606 0.692126,1.06181 0.164173,0.412205 0.24685,0.863386 0.24685,1.35591zm-1.2815 0c0,-0.368504 -0.0484252,-0.699213 -0.146457,-0.992126 -0.0968504,-0.292913 -0.238583,-0.539764 -0.422835,-0.742913 -0.183071,-0.20315 -0.406299,-0.357874 -0.668504,-0.466535 -0.261024,-0.10748 -0.55748,-0.161811 -0.884646,-0.161811l-1.30512 0 0 4.72795 1.30512 0c0.327165,0 0.623622,-0.0543307 0.884646,-0.162992 0.262205,-0.108661 0.485433,-0.264567 0.668504,-0.467717 0.184252,-0.20315 0.325984,-0.45 0.422835,-0.742913 0.0980315,-0.292913 0.146457,-0.622441 0.146457,-0.990945z"/>
   <polygon id="_254298624123456" class="fil2" points="79.0819,46.5803 77.8276,46.5803 77.8276,39.8646 79.0819,39.8646 "/>
   <path id="_2542986241234567" class="fil2" d="M88.1681 44.0445l-0.817323 -2.23346c-0.0401575,-0.0992126 -0.0814961,-0.217323 -0.125197,-0.35315 -0.0437008,-0.135827 -0.0862205,-0.283465 -0.129921,-0.441732 -0.0401575,0.158268 -0.0826772,0.305906 -0.125197,0.442913 -0.0437008,0.138189 -0.0850394,0.258661 -0.126378,0.361417l-0.812598 2.22402 2.13661 0zm2.2063 2.53583l-0.966142 0c-0.108661,0 -0.197244,-0.0283465 -0.264567,-0.0814961 -0.0685039,-0.0543307 -0.119291,-0.121654 -0.153543,-0.201969l-0.501969 -1.37008 -2.7815 0 -0.501969 1.37008c-0.023622,0.0708661 -0.0720472,0.135827 -0.142913,0.194882 -0.0720472,0.0590551 -0.159449,0.0885827 -0.265748,0.0885827l-0.974409 0 2.64213 -6.71575 1.27205 0 2.63858 6.71575z"/>
   <path id="_25429862412345678" class="fil2" d="M104.044 39.8646l-2.08465 6.71575 -1.12913 0 -1.46693 -4.58858c-0.0401575,-0.111024 -0.0779528,-0.248031 -0.112205,-0.408661 -0.0177165,0.0779528 -0.0366142,0.15 -0.0555118,0.218504 -0.0188976,0.0685039 -0.0389764,0.131102 -0.0602362,0.190157l-1.4811 4.58858 -1.13386 0 -2.07992 -6.71575 1.04528 0c0.10748,0 0.199606,0.0248031 0.271654,0.0767717 0.0732283,0.0507874 0.120472,0.120472 0.145276,0.206693l1.14331 4.01693c0.0248031,0.0992126 0.0496063,0.206693 0.0720472,0.322441 0.023622,0.115748 0.0472441,0.238583 0.0720472,0.364961 0.0248031,-0.129921 0.0519685,-0.251575 0.0814961,-0.366142 0.0295276,-0.114567 0.0602362,-0.222047 0.0944882,-0.32126l1.31929 -4.01693c0.0248031,-0.0708661 0.0744094,-0.135827 0.146457,-0.194882 0.0732283,-0.0590551 0.161811,-0.0885827 0.266929,-0.0885827l0.366142 0c0.108661,0 0.197244,0.0271654 0.264567,0.0791339 0.0685039,0.0531496 0.119291,0.120472 0.153543,0.204331l1.31457 4.01693c0.0649606,0.19252 0.124016,0.413386 0.175984,0.664961 0.0401575,-0.244488 0.0850394,-0.466535 0.134646,-0.664961l1.14331 -4.01693c0.0177165,-0.0767717 0.0661417,-0.144094 0.141732,-0.199606 0.0755906,-0.0555118 0.165354,-0.0838583 0.271654,-0.0838583l0.979134 0z"/>
   <path id="_254298624123456789" class="fil2" d="M115.313 43.2224c0,0.49252 -0.080315,0.947244 -0.242126,1.36654 -0.162992,0.420472 -0.393307,0.784252 -0.690945,1.09016 -0.297638,0.307087 -0.654331,0.545669 -1.07244,0.716929 -0.41811,0.172441 -0.882283,0.258661 -1.3937,0.258661 -0.507874,0 -0.970866,-0.0862205 -1.38898,-0.258661 -0.416929,-0.17126 -0.774803,-0.409843 -1.07362,-0.716929 -0.298819,-0.305906 -0.531496,-0.669685 -0.695669,-1.09016 -0.164173,-0.419291 -0.245669,-0.874016 -0.245669,-1.36654 0,-0.49252 0.0814961,-0.948425 0.245669,-1.36772 0.164173,-0.420472 0.39685,-0.78189 0.695669,-1.08898 0.298819,-0.305906 0.656693,-0.54685 1.07362,-0.71811 0.41811,-0.17126 0.881102,-0.25748 1.38898,-0.25748 0.340157,0 0.661417,0.0389764 0.961417,0.11811 0.3,0.0791339 0.576378,0.190157 0.826772,0.334252 0.250394,0.144094 0.477165,0.318898 0.676772,0.524409 0.199606,0.206693 0.368504,0.437008 0.507874,0.690945 0.138189,0.253937 0.245669,0.529134 0.318898,0.826772 0.0720472,0.297638 0.10748,0.609449 0.10748,0.937795zm-1.27677 0c0,-0.368504 -0.0496063,-0.699213 -0.148819,-0.992126 -0.0992126,-0.292913 -0.239764,-0.539764 -0.422835,-0.744094 -0.18189,-0.204331 -0.403937,-0.361417 -0.664961,-0.470079 -0.262205,-0.10748 -0.55748,-0.161811 -0.885827,-0.161811 -0.328346,0 -0.622441,0.0543307 -0.883465,0.161811 -0.262205,0.108661 -0.485433,0.265748 -0.669685,0.470079 -0.184252,0.204331 -0.325984,0.451181 -0.425197,0.744094 -0.0992126,0.292913 -0.148819,0.623622 -0.148819,0.992126 0,0.368504 0.0496063,0.698031 0.148819,0.990945 0.0992126,0.292913 0.240945,0.539764 0.425197,0.742913 0.184252,0.20315 0.40748,0.359055 0.669685,0.467717 0.261024,0.108661 0.555118,0.162992 0.883465,0.162992 0.328346,0 0.623622,-0.0543307 0.885827,-0.162992 0.261024,-0.108661 0.483071,-0.264567 0.664961,-0.467717 0.183071,-0.20315 0.323622,-0.45 0.422835,-0.742913 0.0992126,-0.292913 0.148819,-0.622441 0.148819,-0.990945z"/>
   <path id="_25429862412345678910" class="fil2" d="M122.483 43.0606c0.23622,0 0.441732,-0.0295276 0.616535,-0.0885827 0.174803,-0.0590551 0.318898,-0.140551 0.432283,-0.244488 0.112205,-0.103937 0.196063,-0.226772 0.251575,-0.368504 0.0555118,-0.142913 0.0838583,-0.298819 0.0838583,-0.468898 0,-0.341339 -0.111024,-0.602362 -0.335433,-0.785433 -0.224409,-0.18189 -0.56811,-0.274016 -1.02992,-0.274016l-0.798425 0 0 2.22992 0.779528 0zm3.21378 3.51969l-1.12795 0c-0.21378,0 -0.368504,-0.0838583 -0.464173,-0.250394l-1.4126 -2.15079c-0.0519685,-0.080315 -0.109843,-0.137008 -0.173622,-0.17126 -0.0625984,-0.034252 -0.157087,-0.0519685 -0.281102,-0.0519685l-0.533858 0 0 2.62441 -1.24961 0 0 -6.71575 2.04803 0c0.454724,0 0.84685,0.0472441 1.17402,0.141732 0.325984,0.0944882 0.594094,0.226772 0.80315,0.39685 0.209055,0.17126 0.361417,0.373228 0.46063,0.61063 0.0992126,0.23622 0.148819,0.498425 0.148819,0.783071 0,0.225591 -0.0318898,0.43937 -0.0992126,0.641339 -0.0661417,0.200787 -0.161811,0.383858 -0.287008,0.548031 -0.126378,0.164173 -0.281102,0.307087 -0.465354,0.431102 -0.184252,0.124016 -0.394488,0.222047 -0.629528,0.292913 0.080315,0.046063 0.154724,0.100394 0.223228,0.164173 0.0673228,0.0637795 0.129921,0.13937 0.185433,0.225591l1.68071 2.48031z"/>
   <path id="_2542986241234567891011" class="fil2" d="M131.714 42.6791l0.291732 0c0.11811,0 0.216142,-0.0165354 0.292913,-0.0496063 0.0779528,-0.0318898 0.144094,-0.0838583 0.199606,-0.154724l1.85315 -2.34567c0.0779528,-0.0980315 0.159449,-0.167717 0.244488,-0.206693 0.0850394,-0.0389764 0.19252,-0.057874 0.322441,-0.057874l1.07717 0 -2.26181 2.79094c-0.133465,0.17126 -0.270472,0.291732 -0.413386,0.362598 0.102756,0.0377953 0.194882,0.0885827 0.277559,0.154724 0.0814961,0.0673228 0.159449,0.154724 0.233858,0.263386l2.3315 3.14409 -1.10079 0c-0.148819,0 -0.258661,-0.0212598 -0.33189,-0.0637795 -0.0720472,-0.0413386 -0.134646,-0.101575 -0.184252,-0.18189l-1.89921 -2.48031c-0.0590551,-0.0838583 -0.126378,-0.142913 -0.204331,-0.175984 -0.0767717,-0.034252 -0.188976,-0.0519685 -0.334252,-0.0519685l-0.394488 0 0 2.95394 -1.24961 0 0 -6.71575 1.24961 0 0 2.81457z"/>
   <path id="_254298624123456789101112" class="fil2" d="M144.446 41.0858c-0.0377953,0.0649606 -0.0767717,0.112205 -0.11811,0.141732 -0.0413386,0.0295276 -0.0944882,0.0448819 -0.155906,0.0448819 -0.0649606,0 -0.134646,-0.0248031 -0.211417,-0.0732283 -0.0755906,-0.0484252 -0.166535,-0.100394 -0.271654,-0.159449 -0.105118,-0.0590551 -0.227953,-0.113386 -0.368504,-0.16063 -0.140551,-0.0484252 -0.308268,-0.0708661 -0.500787,-0.0708661 -0.172441,0 -0.324803,0.0200787 -0.454724,0.0614173 -0.129921,0.0413386 -0.238583,0.100394 -0.325984,0.174803 -0.0885827,0.0744094 -0.154724,0.162992 -0.198425,0.265748 -0.0437008,0.103937 -0.0649606,0.218504 -0.0649606,0.34252 0,0.158268 0.0448819,0.28937 0.133465,0.394488 0.0874016,0.105118 0.204331,0.196063 0.349606,0.269291 0.145276,0.0744094 0.31063,0.141732 0.496063,0.200787 0.186614,0.057874 0.376772,0.120472 0.571654,0.186614 0.194882,0.0661417 0.385039,0.144094 0.571654,0.232677 0.185433,0.0874016 0.350787,0.199606 0.496063,0.334252 0.146457,0.134646 0.263386,0.3 0.351969,0.494882 0.0885827,0.194882 0.131102,0.432283 0.131102,0.711024 0,0.303543 -0.0507874,0.587008 -0.154724,0.851575 -0.103937,0.264567 -0.255118,0.494882 -0.454724,0.692126 -0.199606,0.196063 -0.444094,0.350787 -0.732283,0.464173 -0.288189,0.112205 -0.617717,0.170079 -0.988583,0.170079 -0.21378,0 -0.425197,-0.0212598 -0.63189,-0.0637795 -0.207874,-0.0413386 -0.406299,-0.100394 -0.596457,-0.178346 -0.190157,-0.0767717 -0.369685,-0.170079 -0.537402,-0.277559 -0.166535,-0.108661 -0.315354,-0.229134 -0.445276,-0.362598l0.366142 -0.598819c0.0318898,-0.0437008 0.0720472,-0.0814961 0.121654,-0.109843 0.0496063,-0.0295276 0.101575,-0.0437008 0.157087,-0.0437008 0.0779528,0 0.161811,0.0307087 0.251575,0.0944882 0.0897638,0.0637795 0.196063,0.134646 0.320079,0.211417 0.124016,0.0779528 0.269291,0.147638 0.434646,0.211417 0.166535,0.0625984 0.36378,0.0956693 0.596457,0.0956693 0.355512,0 0.63189,-0.0850394 0.826772,-0.253937 0.194882,-0.168898 0.292913,-0.409843 0.292913,-0.726378 0,-0.175984 -0.0437008,-0.320079 -0.132283,-0.431102 -0.0885827,-0.112205 -0.205512,-0.206693 -0.350787,-0.282283 -0.146457,-0.0755906 -0.311811,-0.13937 -0.497244,-0.19252 -0.185433,-0.0519685 -0.374409,-0.109843 -0.566929,-0.17126 -0.191339,-0.0614173 -0.380315,-0.135827 -0.565748,-0.223228 -0.186614,-0.0862205 -0.351969,-0.199606 -0.497244,-0.338976 -0.145276,-0.13937 -0.262205,-0.314173 -0.349606,-0.523228 -0.0885827,-0.209055 -0.133465,-0.465354 -0.133465,-0.772441 0,-0.244488 0.0496063,-0.483071 0.146457,-0.714567 0.0980315,-0.232677 0.238583,-0.438189 0.424016,-0.617717 0.186614,-0.179528 0.415748,-0.323622 0.687402,-0.432283 0.272835,-0.108661 0.585827,-0.162992 0.938976,-0.162992 0.395669,0 0.761811,0.0625984 1.09606,0.186614 0.334252,0.124016 0.618898,0.296457 0.853937,0.519685l-0.31063 0.58937z"/>
  </g>
  <path class="fil1" d="M40.1315 7.66417c2.88543,2.76024 4.68898,6.6437 4.68898,10.9264l0 0c0,4.46929 -1.96299,8.50157 -5.06929,11.2783 -4.70315,4.20591 -10.4752,4.01693 -16.4657,4.00866 -6.14764,-0.00826772 -11.9055,0.180709 -16.6358,-4.26024 -2.94685,-2.76614 -4.79409,-6.69094 -4.79409,-11.0268l0 0c0,-5.01614 2.47323,-9.48307 6.26102,-12.2409 4.42441,-3.22323 9.34252,-3.02717 14.6043,-3.04961 6.40276,-0.0271654 12.4783,-0.355512 17.4106,4.36417l0 0zm-21.2764 1.84488l8.96575 0c4.99488,0 9.0815,4.08661 9.0815,9.0815l0 0c0,4.99488 -4.08661,9.0815 -9.0815,9.0815l-8.96575 0c-4.99488,0 -9.0815,-4.08661 -9.0815,-9.0815l0 0c0,-4.99488 4.08661,-9.0815 9.0815,-9.0815z"/>
 </g>
</svg>
